# xmcd
#
# Track frame offsets:
#	150
#	21557
#	57612
#	77195
#	107062
#	125147
#
# Disc length: 2065 seconds
# Revision: 0
# Processed by: cddbd v1.5.2PL0 Copyright (c) Steve Scherf et al.
# Submitted via: dBpowerAMP V12.0
#
DISCID=57080f06
DTITLE=Lighthouse Family - Lifted
DYEAR=1997
DGENRE=R&B
TTITLE0=Lifted [Single Version]
TTITLE1=Lifted [Jones Nu Horizon Club Mix]
TTITLE2=Lifted [Jones Nu Horizon Club Mix Edit]
TTITLE3=Lifted [Rokstone R&B Mix]
TTITLE4=Lifted [Linslee 7” Mix]
TTITLE5=Lifted [Jones Nu Horizon Dub]
EXTD=
EXTT0=
EXTT1=
EXTT2=
EXTT3=
EXTT4=
EXTT5=
PLAYORDER=
